<svg width="853" height="737" viewBox="0 0 853 737" fill="none" xmlns="http://www.w3.org/2000/svg">
<path d="M724.515 228.318C724.515 237.331 736.44 242.247 762.674 246.344C834.222 256.176 909.744 315.17 948.698 393.009C971.752 439.712 977.317 538.035 959.827 592.112C938.363 658.48 894.64 710.1 832.632 742.874C783.343 769.093 771.419 771.551 713.386 771.551C659.327 771.551 641.838 767.455 604.474 748.609C528.157 710.1 472.509 633.9 458.199 547.867C455.019 524.925 448.66 513.454 440.71 513.454C423.22 513.454 433.555 571.628 462.969 633.08C519.412 755.984 654.558 821.532 779.368 788.758C865.226 765.816 927.234 714.196 971.752 628.164C988.446 596.209 990.831 580.641 990.831 509.357C990.036 442.99 986.857 420.048 972.547 388.093C935.978 304.518 845.351 233.234 760.289 220.944C731.67 216.847 724.515 218.486 724.515 228.318Z" fill="#006494" fill-opacity="0.32"/>
<path d="M726.105 277.48C727.695 282.396 745.98 290.589 766.649 296.325C831.837 313.531 890.665 368.428 914.514 433.977C929.618 474.125 924.849 559.338 906.564 597.848C885.1 642.093 847.736 682.242 807.988 704.364C761.879 729.764 670.457 728.945 621.169 702.725C601.294 692.074 579.035 678.145 571.085 670.771C563.931 664.216 555.186 660.938 552.006 664.216C541.671 674.867 561.546 696.171 603.679 720.751C657.738 751.887 728.49 759.261 786.523 739.596C835.017 722.39 900.999 665.035 925.644 616.693C949.493 569.99 950.288 451.183 927.234 402.841C903.384 352.86 845.351 297.144 800.038 281.576C754.724 265.189 722.13 263.551 726.105 277.48Z" fill="#006494" fill-opacity="0.32"/>
<path d="M726.105 326.641C727.695 331.557 745.98 340.57 765.854 347.125C811.962 360.234 862.046 415.951 873.97 466.751C895.435 553.603 843.761 647.009 761.879 669.951C743.595 674.867 723.72 680.603 718.951 682.242C702.256 687.158 707.026 701.906 725.31 701.906C758.699 701.906 804.808 682.242 835.017 655.203C917.694 583.099 922.464 447.906 846.146 369.247C809.578 331.557 717.361 298.783 726.105 326.641Z" fill="#006494" fill-opacity="0.32"/>
<path d="M648.993 381.538C611.629 405.299 590.96 432.338 580.625 474.125C563.136 541.312 594.14 607.68 656.148 637.177C699.076 656.841 735.645 656.841 777.779 635.538C876.355 586.377 876.355 427.422 777.779 379.08C740.415 361.054 679.202 361.873 648.993 381.538ZM777.779 406.938C811.167 427.422 827.862 462.654 827.862 512.635C827.862 547.048 823.887 558.519 803.218 583.099C756.314 637.996 682.382 641.274 633.093 591.293C559.161 514.273 610.834 390.551 716.566 390.551C738.03 390.551 762.674 397.106 777.779 406.938Z" fill="#006494" fill-opacity="0.32"/>
</svg>
