<svg width="123" height="84" viewBox="0 0 123 84" fill="none" xmlns="http://www.w3.org/2000/svg">
<path d="M62.625 18.8767C62.625 19.6219 63.6557 20.0283 65.9233 20.367C72.1077 21.1799 78.6356 26.0574 82.0027 32.4929C83.9954 36.3542 84.4764 44.4832 82.9647 48.9542C81.1094 54.4413 77.33 58.709 71.9703 61.4187C67.7099 63.5865 66.6792 63.7897 61.663 63.7897C56.9903 63.7897 55.4786 63.451 52.249 61.8929C45.6523 58.709 40.8423 52.409 39.6054 45.2961C39.3305 43.3993 38.7808 42.4509 38.0937 42.4509C36.5819 42.4509 37.4752 47.2606 40.0177 52.3413C44.8965 62.5026 56.5781 67.922 67.3663 65.2123C74.7876 63.3155 80.1474 59.0477 83.9954 51.9348C85.4384 49.2929 85.6446 48.0058 85.6446 42.1122C85.5759 36.6251 85.301 34.7283 84.0641 32.0864C80.9032 25.1767 73.0697 19.2832 65.7172 18.267C63.2434 17.9283 62.625 18.0638 62.625 18.8767Z" fill="#006494"/>
<path d="M62.7624 22.9412C62.8998 23.3477 64.4803 24.0251 66.2669 24.4993C71.9015 25.9219 76.9865 30.4606 79.0479 35.88C80.3535 39.1993 79.9412 46.2445 78.3608 49.4284C76.5055 53.0864 73.2758 56.4058 69.8401 58.2348C65.8546 60.3348 57.9523 60.2671 53.692 58.0994C51.9741 57.2187 50.0501 56.0671 49.3629 55.4574C48.7445 54.9155 47.9886 54.6445 47.7138 54.9155C46.8205 55.7961 48.5384 57.5574 52.1803 59.5897C56.8529 62.1639 62.9686 62.7736 67.9848 61.1477C72.1764 59.7252 77.8798 54.9832 80.0099 50.9864C82.0714 47.1251 82.1401 37.3025 80.1474 33.3058C78.0859 29.1735 73.0697 24.567 69.1529 23.2799C65.2362 21.9251 62.4188 21.7896 62.7624 22.9412Z" fill="#006494"/>
<path d="M62.7625 27.0058C62.8999 27.4122 64.4803 28.1574 66.1982 28.6993C70.1837 29.7832 74.5128 34.3896 75.5435 38.5896C77.3988 45.7703 72.9323 53.4929 65.8546 55.3897C64.2742 55.7961 62.5563 56.2703 62.144 56.4058C60.701 56.8123 61.1133 58.0316 62.6937 58.0316C65.5798 58.0316 69.5653 56.4058 72.1764 54.1703C79.3228 48.209 79.7351 37.0316 73.1384 30.5283C69.9775 27.4122 62.0066 24.7025 62.7625 27.0058Z" fill="#006494"/>
<path d="M56.097 31.5445C52.8674 33.509 51.0808 35.7445 50.1875 39.1993C48.6758 44.7542 51.3557 50.2413 56.7155 52.68C60.4261 54.3058 63.587 54.3058 67.2289 52.5445C75.7496 48.48 75.7496 35.338 67.2289 31.3412C63.9993 29.8509 58.7082 29.9187 56.097 31.5445ZM67.2289 33.6445C70.1149 35.338 71.558 38.2509 71.558 42.3832C71.558 45.2284 71.2144 46.1768 69.4278 48.209C65.3736 52.7477 58.9831 53.0187 54.7227 48.8864C48.3322 42.5187 52.7987 32.2896 61.9378 32.2896C63.7931 32.2896 65.9233 32.8316 67.2289 33.6445Z" fill="#006494"/>
</svg>
