<svg width="164" height="108" viewBox="0 0 164 108" fill="none" xmlns="http://www.w3.org/2000/svg">
<path d="M83.5 24.2701C83.5 25.2281 84.8743 25.7507 87.8978 26.1862C96.1436 27.2314 104.848 33.5024 109.337 41.7766C111.994 46.7411 112.635 57.1927 110.62 62.9411C108.146 69.996 103.107 75.4831 95.9604 78.9669C90.2799 81.754 88.9056 82.0153 82.2173 82.0153C75.9872 82.0153 73.9715 81.5799 69.6654 79.5766C60.8698 75.4831 54.4564 67.3831 52.8072 58.2379C52.4408 55.7992 51.7078 54.5798 50.7916 54.5798C48.7759 54.5798 49.967 60.7637 53.357 67.296C59.862 80.3605 75.4374 87.3283 89.8218 83.8444C99.7168 81.4057 106.863 75.9186 111.994 66.7734C113.918 63.3766 114.193 61.7218 114.193 54.1443C114.101 47.0895 113.735 44.6508 112.086 41.254C107.871 32.3701 97.4263 24.7927 87.6229 23.4862C84.3246 23.0507 83.5 23.2249 83.5 24.2701Z" fill="white"/>
<path d="M83.6833 29.4959C83.8665 30.0185 85.9738 30.8894 88.3559 31.4991C95.8688 33.3281 102.649 39.1636 105.397 46.1314C107.138 50.3991 106.588 59.4572 104.481 63.5508C102.007 68.254 97.7012 72.5218 93.1202 74.8734C87.8062 77.5734 77.2699 77.4863 71.5894 74.6992C69.2989 73.5669 66.7335 72.0863 65.8173 71.3024C64.9928 70.6056 63.9849 70.2572 63.6185 70.6056C62.4274 71.7379 64.7179 74.0024 69.5738 76.6153C75.804 79.925 83.9582 80.7089 90.6464 78.6186C96.2353 76.7895 103.84 70.6927 106.68 65.554C109.429 60.5895 109.52 47.9604 106.863 42.8217C104.115 37.5088 97.4263 31.5862 92.204 29.9314C86.9816 28.1894 83.2252 28.0152 83.6833 29.4959Z" fill="white"/>
<path d="M83.6832 34.7217C83.8665 35.2443 85.9738 36.2024 88.2643 36.8992C93.5782 38.2927 99.3503 44.2153 100.725 49.6153C103.198 58.8476 97.243 68.7766 87.8062 71.2153C85.6989 71.7379 83.4084 72.3476 82.8587 72.5218C80.9346 73.0444 81.4844 74.6121 83.5916 74.6121C87.4397 74.6121 92.7537 72.5218 96.2352 69.6476C105.764 61.9831 106.313 47.6121 97.5179 39.2508C93.3034 35.2443 82.6754 31.7604 83.6832 34.7217Z" fill="white"/>
<path d="M74.7961 40.5572C70.49 43.083 68.1078 45.9572 66.9168 50.3992C64.9011 57.5411 68.4743 64.596 75.6207 67.7315C80.5682 69.8218 84.7827 69.8218 89.6386 67.5573C101 62.3314 101 45.4346 89.6386 40.2959C85.3325 38.3798 78.2777 38.4669 74.7961 40.5572ZM89.6386 43.2572C93.4867 45.4346 95.4107 49.1798 95.4107 54.4927C95.4107 58.1508 94.9526 59.3701 92.5705 61.9831C87.1649 67.8185 78.6442 68.1669 72.9637 62.854C64.443 54.6669 70.3984 41.5153 82.5838 41.5153C85.0576 41.5153 87.8978 42.2121 89.6386 43.2572Z" fill="white"/>
</svg>
